<svg width="18" height="12" viewBox="0 0 18 12" fill="none" xmlns="http://www.w3.org/2000/svg">
<path fill-rule="evenodd" clip-rule="evenodd" d="M9 0C4.90909 0 1.41545 2.488 0 6C1.41545 9.512 4.90909 12 9 12C13.0909 12 16.5845 9.512 18 6C16.5845 2.488 13.0909 0 9 0ZM8.99924 9.99998C6.74106 9.99998 4.90833 8.20798 4.90833 5.99998C4.90833 3.79198 6.74106 1.99998 8.99924 1.99998C11.2574 1.99998 13.0901 3.79198 13.0901 5.99998C13.0901 8.20798 11.2574 9.99998 8.99924 9.99998ZM8.99949 3.59956C7.64131 3.59956 6.54494 4.67156 6.54494 5.99956C6.54494 7.32756 7.64131 8.39956 8.99949 8.39956C10.3577 8.39956 11.454 7.32756 11.454 5.99956C11.454 4.67156 10.3577 3.59956 8.99949 3.59956Z" fill="#84818A"/>
</svg>
