<svg width="24" height="25" viewBox="0 0 24 25" fill="none" xmlns="http://www.w3.org/2000/svg">
<g clip-path="url(#clip0_394_144)">
<path d="M23.7656 12.5469C23.7656 19.0187 18.5187 24.2656 12.0469 24.2656C5.57498 24.2656 0.328125 19.0187 0.328125 12.5469C0.328125 6.07498 5.57498 0.828125 12.0469 0.828125C18.5187 0.828125 23.7656 6.07498 23.7656 12.5469Z" fill="#3C5A99"/>
<path d="M14.9922 13.0059H12.9012V20.6661H9.73327V13.0059H8.22656V10.313H9.73327V8.57108C9.73327 7.32552 10.3247 5.37416 12.9298 5.37416L15.2758 5.38433V7.99771H13.5734C13.2939 7.99771 12.9012 8.13735 12.9012 8.73111V10.3162H15.2697L14.9922 13.0059Z" fill="white"/>
</g>
<defs>
<clipPath id="clip0_394_144">
<rect width="24" height="24" fill="white" transform="translate(0 0.5)"/>
</clipPath>
</defs>
</svg>
