<svg width="24" height="25" viewBox="0 0 24 25" fill="none" xmlns="http://www.w3.org/2000/svg">
<g clip-path="url(#clip0_394_58)">
<path d="M23.9875 12.7245C23.9875 11.7413 23.9059 11.0237 23.7292 10.2796H12.2393V14.7176H18.9836C18.8477 15.8205 18.1134 17.4815 16.4817 18.5976L16.4588 18.7461L20.0917 21.4963L20.3434 21.5209C22.6549 19.4347 23.9875 16.3653 23.9875 12.7245Z" fill="#4285F4"/>
<path d="M12.2391 24.4176C15.5433 24.4176 18.3171 23.3545 20.3432 21.5209L16.4815 18.5976C15.4481 19.3018 14.0611 19.7934 12.2391 19.7934C9.00291 19.7934 6.25622 17.7074 5.27711 14.824L5.13359 14.8359L1.35604 17.6927L1.30664 17.8269C3.31906 21.7334 7.45273 24.4176 12.2391 24.4176Z" fill="#34A853"/>
<path d="M5.27678 14.824C5.01843 14.0799 4.86891 13.2826 4.86891 12.4588C4.86891 11.6349 5.01843 10.8377 5.26318 10.0936L5.25634 9.93511L1.43145 7.03239L1.30631 7.09056C0.476896 8.71166 0.000976562 10.5321 0.000976562 12.4588C0.000976562 14.3855 0.476896 16.2058 1.30631 17.8269L5.27678 14.824Z" fill="#FBBC05"/>
<path d="M12.2391 5.12403C14.5371 5.12403 16.0871 6.09402 16.971 6.90461L20.4248 3.60928C18.3036 1.6826 15.5433 0.5 12.2391 0.5C7.45273 0.5 3.31906 3.18406 1.30664 7.09056L5.26351 10.0936C6.25622 7.2102 9.00291 5.12403 12.2391 5.12403Z" fill="#EB4335"/>
</g>
<defs>
<clipPath id="clip0_394_58">
<rect width="24" height="24" fill="white" transform="translate(0 0.5)"/>
</clipPath>
</defs>
</svg>
