<svg width="18" height="15" viewBox="0 0 18 15" fill="none" xmlns="http://www.w3.org/2000/svg">
<path d="M7.47273 1.85632C7.97333 1.73914 8.48586 1.68057 9 1.68178C14.0909 1.68178 17 7.49996 17 7.49996C16.5585 8.32585 16.032 9.1034 15.4291 9.81996M10.5418 9.04178C10.3421 9.25614 10.1012 9.42807 9.83357 9.54732C9.56593 9.66657 9.27702 9.73069 8.98407 9.73586C8.69111 9.74103 8.40012 9.68714 8.12844 9.57741C7.85677 9.46767 7.60998 9.30434 7.4028 9.09716C7.19562 8.88998 7.03229 8.64319 6.92255 8.37151C6.81282 8.09984 6.75893 7.80885 6.7641 7.51589C6.76927 7.22294 6.83339 6.93403 6.95264 6.66639C7.07189 6.39876 7.24382 6.15788 7.45818 5.95814M13.32 11.82C12.0768 12.7676 10.563 13.2926 9 13.3181C3.90909 13.3181 1 7.49996 1 7.49996C1.90465 5.81406 3.15937 4.34113 4.68 3.17996L13.32 11.82Z" stroke="#4B5563" stroke-opacity="0.5" stroke-width="1.5" stroke-linecap="round" stroke-linejoin="round"/>
</svg>
